# xmcd
#
# Track frame offsets: 
#        150
#        24495
#        45063
#        62457
#        79776
#        100339
#        119047
#        136154
#        151010
#        168250
#        186627
#
# Disc length: 2774 seconds
#
# Revision: 1
# Processed by: cddbd v1.5.2PL0 Copyright (c) Steve Scherf et al.
# Submitted via: ExactAudioCopy v0.99pb5
#
DISCID=830ad40b
DTITLE=En Vogue - Electric Cafe
DYEAR=2018
DGENRE=R&B
TTITLE0=Blue Skies
TTITLE1=Deja Vu
TTITLE2=Rocket
TTITLE3=Reach 4 Me
TTITLE4=Electric Cafe
TTITLE5=Life
TTITLE6=Love the Way
TTITLE7=Oceans Deep
TTITLE8=Have A Seat (feat. Snoop Dogg)
TTITLE9=I'm Good
TTITLE10=So Serious
EXTD=
EXTT0=
EXTT1=
EXTT2=
EXTT3=
EXTT4=
EXTT5=
EXTT6=
EXTT7=
EXTT8=
EXTT9=
EXTT10=
PLAYORDER=
